<svg width="142" height="38" viewBox="0 0 142 38" fill="none" xmlns="http://www.w3.org/2000/svg">
<path d="M58.1456 8.18182V30H54.1612L44.669 16.2678H44.5092V30H39.8963V8.18182H43.9446L53.3622 21.9034H53.554V8.18182H58.1456ZM72.3652 23.0327V13.6364H76.9036V30H72.5463V27.0277H72.3759C72.0066 27.9865 71.3922 28.7571 70.5328 29.3395C69.6806 29.9219 68.6401 30.2131 67.4114 30.2131C66.3176 30.2131 65.3553 29.9645 64.5243 29.4673C63.6934 28.9702 63.0435 28.2635 62.5748 27.3473C62.1131 26.4311 61.8787 25.3338 61.8716 24.0554V13.6364H66.41V23.2457C66.4171 24.2116 66.6763 24.9751 67.1877 25.5362C67.699 26.0973 68.3844 26.3778 69.2438 26.3778C69.7907 26.3778 70.302 26.2536 70.7779 26.005C71.2537 25.7493 71.6373 25.3729 71.9284 24.8757C72.2267 24.3786 72.3723 23.7642 72.3652 23.0327ZM87.9059 36.4773C86.4357 36.4773 85.1751 36.2749 84.1239 35.87C83.0799 35.4723 82.2489 34.929 81.631 34.2401C81.0131 33.5511 80.6119 32.777 80.4272 31.9176L84.6246 31.353C84.7525 31.6797 84.9549 31.9851 85.2319 32.2692C85.5089 32.5533 85.8746 32.7805 86.3292 32.951C86.7908 33.1286 87.3519 33.2173 88.0124 33.2173C88.9996 33.2173 89.8129 32.9759 90.4521 32.4929C91.0984 32.017 91.4215 31.218 91.4215 30.0959V27.1023H91.2298C91.0309 27.5568 90.7326 27.9865 90.3349 28.3913C89.9371 28.7962 89.4258 29.1264 88.8008 29.3821C88.1758 29.6378 87.43 29.7656 86.5636 29.7656C85.3349 29.7656 84.2163 29.4815 83.2077 28.9134C82.2063 28.3381 81.4073 27.4609 80.8107 26.282C80.2212 25.0959 79.9265 23.5973 79.9265 21.7862C79.9265 19.9325 80.2283 18.3842 80.832 17.1413C81.4357 15.8984 82.2383 14.968 83.2397 14.3501C84.2482 13.7322 85.3526 13.4233 86.5529 13.4233C87.4691 13.4233 88.2362 13.5795 88.854 13.892C89.4719 14.1974 89.9691 14.581 90.3455 15.0426C90.729 15.4972 91.0238 15.9446 91.2298 16.3849H91.4002V13.6364H95.9066V30.1598C95.9066 31.5518 95.5657 32.7166 94.8839 33.6541C94.2021 34.5916 93.2575 35.2947 92.0501 35.7635C90.8498 36.2393 89.4684 36.4773 87.9059 36.4773ZM88.0018 26.3565C88.7333 26.3565 89.3512 26.1754 89.8555 25.8132C90.3668 25.4439 90.7575 24.9183 91.0273 24.2365C91.3043 23.5476 91.4428 22.7237 91.4428 21.7649C91.4428 20.8061 91.3079 19.9751 91.038 19.272C90.7681 18.5618 90.3775 18.0114 89.8661 17.6207C89.3548 17.2301 88.7333 17.0348 88.0018 17.0348C87.256 17.0348 86.6275 17.2372 86.1161 17.642C85.6048 18.0398 85.2177 18.5937 84.9549 19.304C84.6921 20.0142 84.5607 20.8345 84.5607 21.7649C84.5607 22.7095 84.6921 23.5263 84.9549 24.2152C85.2248 24.897 85.6119 25.4261 86.1161 25.8026C86.6275 26.1719 87.256 26.3565 88.0018 26.3565ZM104.184 30.3089C103.14 30.3089 102.21 30.1278 101.393 29.7656C100.576 29.3963 99.93 28.853 99.4542 28.1357C98.9854 27.4112 98.7511 26.5092 98.7511 25.4297C98.7511 24.5206 98.918 23.7571 99.2518 23.1392C99.5856 22.5213 100.04 22.0241 100.615 21.6477C101.191 21.2713 101.844 20.9872 102.576 20.7955C103.314 20.6037 104.088 20.4688 104.898 20.3906C105.85 20.2912 106.617 20.1989 107.199 20.1136C107.782 20.0213 108.204 19.8864 108.467 19.7088C108.73 19.5312 108.861 19.2685 108.861 18.9205V18.8565C108.861 18.1818 108.648 17.6598 108.222 17.2905C107.803 16.9212 107.206 16.7365 106.432 16.7365C105.615 16.7365 104.966 16.9176 104.483 17.2798C104 17.6349 103.68 18.0824 103.524 18.6222L99.3263 18.2812C99.5394 17.2869 99.9585 16.4276 100.583 15.7031C101.208 14.9716 102.015 14.4105 103.002 14.0199C103.996 13.6222 105.147 13.4233 106.453 13.4233C107.363 13.4233 108.233 13.5298 109.064 13.7429C109.902 13.956 110.644 14.2862 111.29 14.7337C111.944 15.1811 112.458 15.7564 112.835 16.4595C113.211 17.1555 113.4 17.9901 113.4 18.9631V30H109.096V27.7308H108.968C108.705 28.2422 108.353 28.6932 107.913 29.0838C107.473 29.4673 106.944 29.7692 106.326 29.9893C105.708 30.2024 104.994 30.3089 104.184 30.3089ZM105.484 27.1768C106.152 27.1768 106.741 27.0455 107.252 26.7827C107.764 26.5128 108.165 26.1506 108.456 25.696C108.748 25.2415 108.893 24.7266 108.893 24.1513V22.4148C108.751 22.5071 108.556 22.5923 108.307 22.6705C108.066 22.7415 107.792 22.8089 107.487 22.8729C107.181 22.9297 106.876 22.983 106.571 23.0327C106.265 23.0753 105.988 23.1143 105.74 23.1499C105.207 23.228 104.742 23.3523 104.344 23.5227C103.946 23.6932 103.637 23.924 103.417 24.2152C103.197 24.4993 103.087 24.8544 103.087 25.2805C103.087 25.8984 103.311 26.3707 103.758 26.6974C104.213 27.017 104.788 27.1768 105.484 27.1768ZM130.536 18.3026L126.381 18.5582C126.31 18.2031 126.157 17.8835 125.923 17.5994C125.688 17.3082 125.379 17.0774 124.996 16.907C124.619 16.7294 124.168 16.6406 123.643 16.6406C122.94 16.6406 122.347 16.7898 121.864 17.0881C121.381 17.3793 121.139 17.7699 121.139 18.2599C121.139 18.6506 121.295 18.9808 121.608 19.2507C121.92 19.5206 122.457 19.7372 123.217 19.9006L126.178 20.4972C127.769 20.8239 128.955 21.3494 129.737 22.0739C130.518 22.7983 130.908 23.75 130.908 24.929C130.908 26.0014 130.592 26.9425 129.96 27.7521C129.335 28.5618 128.476 29.1939 127.382 29.6484C126.295 30.0959 125.042 30.3196 123.621 30.3196C121.455 30.3196 119.729 29.8686 118.444 28.9666C117.165 28.0575 116.416 26.8217 116.196 25.2592L120.66 25.0249C120.795 25.6854 121.121 26.1896 121.64 26.5376C122.158 26.8786 122.822 27.049 123.632 27.049C124.428 27.049 125.067 26.8963 125.55 26.5909C126.04 26.2784 126.288 25.8771 126.295 25.3871C126.288 24.9751 126.114 24.6378 125.773 24.375C125.433 24.1051 124.907 23.8991 124.197 23.7571L121.363 23.1925C119.765 22.8729 118.575 22.3189 117.794 21.5305C117.02 20.7422 116.633 19.7372 116.633 18.5156C116.633 17.4645 116.917 16.5589 117.485 15.799C118.06 15.0391 118.866 14.4531 119.903 14.0412C120.947 13.6293 122.169 13.4233 123.568 13.4233C125.635 13.4233 127.261 13.8601 128.447 14.7337C129.641 15.6072 130.337 16.7969 130.536 18.3026ZM139.189 8.18182L138.773 23.4588H134.874L134.448 8.18182H139.189ZM136.824 30.277C136.121 30.277 135.517 30.0284 135.013 29.5312C134.508 29.027 134.26 28.4233 134.267 27.7202C134.26 27.0241 134.508 26.4276 135.013 25.9304C135.517 25.4332 136.121 25.1847 136.824 25.1847C137.498 25.1847 138.091 25.4332 138.603 25.9304C139.114 26.4276 139.373 27.0241 139.381 27.7202C139.373 28.1889 139.249 28.6186 139.008 29.0092C138.773 29.3928 138.464 29.7017 138.081 29.9361C137.697 30.1634 137.278 30.277 136.824 30.277Z" fill="#4169E1"/>
<path d="M18.525 4.44124C18.6748 4.37585 18.8365 4.3421 19 4.3421C19.1635 4.3421 19.3252 4.37585 19.475 4.44124C25.3302 7.00054 30.9154 10.1379 36.1475 13.8067C36.3319 13.936 36.4757 14.115 36.5622 14.323C36.6486 14.5309 36.6742 14.7592 36.6358 14.9811C36.5975 15.203 36.4968 15.4094 36.3456 15.5763C36.1944 15.7432 35.9988 15.8636 35.7817 15.9236C30.3499 17.4238 25.094 19.5002 20.1036 22.1176L20.0988 22.1207L19.5605 22.4057C19.3883 22.4978 19.196 22.5459 19.0008 22.5459C18.8055 22.5459 18.6133 22.4978 18.4411 22.4057C16.3015 21.2623 14.1105 20.2178 11.875 19.2755V18.9208C11.8739 18.8222 11.8984 18.725 11.9462 18.6387C11.9939 18.5524 12.0632 18.4799 12.1473 18.4284C14.5372 16.9801 16.9958 15.6486 19.5146 14.4384C19.7984 14.3019 20.0165 14.0583 20.1207 13.761C20.2249 13.4638 20.2068 13.1374 20.0703 12.8535C19.9338 12.5696 19.6902 12.3516 19.393 12.2474C19.0957 12.1431 18.7693 12.1613 18.4854 12.2977C15.8979 13.5411 13.3722 14.9091 10.9171 16.397C10.5678 16.6089 10.2665 16.8912 10.0323 17.226C9.79814 17.5607 9.63626 17.9406 9.55698 18.3413C7.15223 17.416 4.70357 16.6091 2.21982 15.9236C2.00274 15.8636 1.80718 15.7432 1.65595 15.5763C1.50472 15.4094 1.40407 15.203 1.36573 14.9811C1.32738 14.7592 1.35294 14.5309 1.4394 14.323C1.52587 14.115 1.66968 13.936 1.85407 13.8067C7.08563 10.138 12.6703 7.00067 18.525 4.44124V4.44124Z" fill="#4169E1"/>
<path d="M20.6784 24.4989C24.5675 22.4211 28.6284 20.6825 32.8162 19.3024C33.0302 21.5585 33.1648 23.8215 33.22 26.087C33.2258 26.3259 33.1594 26.561 33.0294 26.7616C32.8995 26.9622 32.712 27.1188 32.4916 27.2112C28.0033 29.0858 23.7059 31.388 19.6587 34.086C19.4636 34.216 19.2345 34.2854 19 34.2854C18.7656 34.2854 18.5364 34.216 18.3414 34.086C14.2947 31.3881 9.99779 29.0859 5.51004 27.2112C5.28932 27.1191 5.10155 26.9625 4.97131 26.7619C4.84107 26.5613 4.77444 26.3261 4.78012 26.087C4.83554 23.8038 4.9717 21.5428 5.18387 19.3008C6.63793 19.7801 8.0773 20.3028 9.50004 20.8683V22.8792C9.15793 23.0763 8.87037 23.3556 8.66335 23.6918C8.45633 24.028 8.33639 24.4105 8.31439 24.8047C8.29238 25.1989 8.369 25.5924 8.53732 25.9495C8.70563 26.3067 8.96033 26.6162 9.27837 26.8502C9.13587 27.4518 8.92687 28.0424 8.64979 28.6077C9.36545 28.9449 10.0764 29.2948 10.781 29.6543C11.1782 28.8459 11.4714 27.9904 11.6534 27.1083C12.0538 26.9302 12.3971 26.6449 12.6454 26.2838C12.8937 25.9228 13.0373 25.5001 13.0602 25.0625C13.0831 24.6249 12.9846 24.1895 12.7754 23.8044C12.5662 23.4194 12.2546 23.0997 11.875 22.8808V21.8595C13.7246 22.668 15.5415 23.549 17.3217 24.5005C17.8381 24.7763 18.4146 24.9206 19 24.9206C19.5855 24.9206 20.1619 24.7763 20.6784 24.5005V24.4989Z" fill="#4169E1"/>
<path d="M7.06485 30.8148C7.72985 30.1514 8.2571 29.4057 8.64818 28.6077C9.36543 28.9449 10.0763 29.2948 10.7809 29.6542C10.2628 30.7065 9.5749 31.6662 8.74476 32.4947C8.63605 32.6114 8.50495 32.705 8.35928 32.7699C8.21362 32.8348 8.05637 32.8697 7.89693 32.8725C7.73748 32.8753 7.5791 32.846 7.43123 32.7863C7.28337 32.7266 7.14905 32.6377 7.03629 32.5249C6.92352 32.4121 6.83463 32.2778 6.7749 32.1299C6.71518 31.9821 6.68585 31.8237 6.68866 31.6643C6.69147 31.5048 6.72637 31.3476 6.79128 31.2019C6.85618 31.0562 6.94976 30.9251 7.06643 30.8164L7.06485 30.8148Z" fill="#4169E1"/>
</svg>
